<mxfile host="app.diagrams.net" modified="2023-09-03T10:00:03.902Z" agent="Mozilla/5.0 (Macintosh; Intel Mac OS X 10_15_7) AppleWebKit/537.36 (KHTML, like Gecko) Chrome/116.0.0.0 Safari/537.36" etag="c8I3ry9f-hJErhr06grR" version="21.6.8" type="device" pages="6">
  <diagram id="C5RBs43oDa-KdzZeNtuy" name="Page-1">
    <mxGraphModel dx="3915" dy="1830" grid="1" gridSize="10" guides="1" tooltips="1" connect="1" arrows="1" fold="1" page="1" pageScale="1" pageWidth="827" pageHeight="1169" math="0" shadow="0">
      <root>
        <mxCell id="WIyWlLk6GJQsqaUBKTNV-0" />
        <mxCell id="WIyWlLk6GJQsqaUBKTNV-1" parent="WIyWlLk6GJQsqaUBKTNV-0" />
        <mxCell id="8eQ4gHkBYVBpieX78YmF-0" value="Constitutional AI(CAI) Output Generation" style="swimlane;startSize=20;horizontal=1;containerType=tree;" vertex="1" parent="WIyWlLk6GJQsqaUBKTNV-1">
          <mxGeometry x="-1664" y="-1080" width="1030" height="360" as="geometry" />
        </mxCell>
        <mxCell id="3X0yh-yE4LxC9hVG2ziI-28" value="" style="rounded=0;whiteSpace=wrap;html=1;" vertex="1" parent="8eQ4gHkBYVBpieX78YmF-0">
          <mxGeometry x="600" y="30" width="180" height="300" as="geometry" />
        </mxCell>
        <object label="Documents&lt;br&gt;" Documents="" id="3X0yh-yE4LxC9hVG2ziI-0">
          <mxCell style="sketch=0;outlineConnect=0;fontColor=#232F3E;gradientColor=none;fillColor=#232F3D;strokeColor=none;dashed=0;verticalLabelPosition=bottom;verticalAlign=top;align=center;html=1;fontSize=12;fontStyle=0;aspect=fixed;pointerEvents=1;shape=mxgraph.aws4.documents2;fontFamily=Helvetica;" vertex="1" parent="8eQ4gHkBYVBpieX78YmF-0">
            <mxGeometry x="-4" y="80.51" width="140" height="162.99" as="geometry" />
          </mxCell>
        </object>
        <mxCell id="3X0yh-yE4LxC9hVG2ziI-1" value="LLMS" style="whiteSpace=wrap;html=1;aspect=fixed;" vertex="1" parent="8eQ4gHkBYVBpieX78YmF-0">
          <mxGeometry x="250" y="123.5" width="120" height="120" as="geometry" />
        </mxCell>
        <mxCell id="3X0yh-yE4LxC9hVG2ziI-2" value="" style="endArrow=classic;html=1;rounded=0;exitX=1;exitY=0.5;exitDx=0;exitDy=0;entryX=0;entryY=0.5;entryDx=0;entryDy=0;" edge="1" parent="8eQ4gHkBYVBpieX78YmF-0" source="3X0yh-yE4LxC9hVG2ziI-1" target="3X0yh-yE4LxC9hVG2ziI-5">
          <mxGeometry width="50" height="50" relative="1" as="geometry">
            <mxPoint x="340" y="124.5" as="sourcePoint" />
            <mxPoint x="510" y="73.5" as="targetPoint" />
          </mxGeometry>
        </mxCell>
        <mxCell id="3X0yh-yE4LxC9hVG2ziI-3" value="" style="endArrow=classic;html=1;rounded=0;exitX=1;exitY=0.5;exitDx=0;exitDy=0;entryX=0;entryY=0.75;entryDx=0;entryDy=0;" edge="1" parent="8eQ4gHkBYVBpieX78YmF-0" source="3X0yh-yE4LxC9hVG2ziI-1" target="3X0yh-yE4LxC9hVG2ziI-6">
          <mxGeometry width="50" height="50" relative="1" as="geometry">
            <mxPoint x="340" y="123" as="sourcePoint" />
            <mxPoint x="510" y="163.5" as="targetPoint" />
          </mxGeometry>
        </mxCell>
        <mxCell id="3X0yh-yE4LxC9hVG2ziI-4" value="" style="endArrow=classic;html=1;rounded=0;exitX=1;exitY=0.5;exitDx=0;exitDy=0;entryX=0;entryY=0.5;entryDx=0;entryDy=0;" edge="1" parent="8eQ4gHkBYVBpieX78YmF-0" source="3X0yh-yE4LxC9hVG2ziI-1" target="3X0yh-yE4LxC9hVG2ziI-7">
          <mxGeometry width="50" height="50" relative="1" as="geometry">
            <mxPoint x="350" y="123.5" as="sourcePoint" />
            <mxPoint x="510" y="263.5" as="targetPoint" />
          </mxGeometry>
        </mxCell>
        <mxCell id="3X0yh-yE4LxC9hVG2ziI-5" value="Response" style="rounded=1;whiteSpace=wrap;html=1;" vertex="1" parent="8eQ4gHkBYVBpieX78YmF-0">
          <mxGeometry x="630" y="50" width="120" height="60" as="geometry" />
        </mxCell>
        <mxCell id="3X0yh-yE4LxC9hVG2ziI-6" value="Critique" style="rounded=1;whiteSpace=wrap;html=1;" vertex="1" parent="8eQ4gHkBYVBpieX78YmF-0">
          <mxGeometry x="630" y="140" width="120" height="60" as="geometry" />
        </mxCell>
        <mxCell id="3X0yh-yE4LxC9hVG2ziI-7" value="Revision" style="rounded=1;whiteSpace=wrap;html=1;" vertex="1" parent="8eQ4gHkBYVBpieX78YmF-0">
          <mxGeometry x="630" y="240" width="120" height="60" as="geometry" />
        </mxCell>
        <mxCell id="3X0yh-yE4LxC9hVG2ziI-8" value="" style="endArrow=classic;html=1;rounded=0;" edge="1" parent="8eQ4gHkBYVBpieX78YmF-0">
          <mxGeometry width="50" height="50" relative="1" as="geometry">
            <mxPoint x="136" y="180.83402985074625" as="sourcePoint" />
            <mxPoint x="250" y="180" as="targetPoint" />
          </mxGeometry>
        </mxCell>
        <mxCell id="3X0yh-yE4LxC9hVG2ziI-10" value="" style="endArrow=classic;html=1;rounded=0;" edge="1" parent="8eQ4gHkBYVBpieX78YmF-0">
          <mxGeometry width="50" height="50" relative="1" as="geometry">
            <mxPoint x="750" y="270" as="sourcePoint" />
            <mxPoint x="810" y="270" as="targetPoint" />
          </mxGeometry>
        </mxCell>
        <mxCell id="3X0yh-yE4LxC9hVG2ziI-11" value="" style="endArrow=classic;html=1;rounded=0;" edge="1" parent="8eQ4gHkBYVBpieX78YmF-0">
          <mxGeometry width="50" height="50" relative="1" as="geometry">
            <mxPoint x="689.5" y="110" as="sourcePoint" />
            <mxPoint x="690" y="140" as="targetPoint" />
          </mxGeometry>
        </mxCell>
        <mxCell id="3X0yh-yE4LxC9hVG2ziI-29" value="CAI process" style="text;html=1;strokeColor=none;fillColor=none;align=center;verticalAlign=middle;whiteSpace=wrap;rounded=0;" vertex="1" parent="8eQ4gHkBYVBpieX78YmF-0">
          <mxGeometry x="600" y="30" width="79" height="20" as="geometry" />
        </mxCell>
        <mxCell id="3X0yh-yE4LxC9hVG2ziI-30" value="Generated&amp;nbsp;&lt;br&gt;Text" style="text;html=1;strokeColor=none;fillColor=none;align=center;verticalAlign=middle;whiteSpace=wrap;rounded=0;" vertex="1" parent="8eQ4gHkBYVBpieX78YmF-0">
          <mxGeometry x="824" y="255" width="60" height="30" as="geometry" />
        </mxCell>
        <mxCell id="3X0yh-yE4LxC9hVG2ziI-24" value="" style="endArrow=classic;html=1;rounded=0;entryX=0.583;entryY=-0.017;entryDx=0;entryDy=0;entryPerimeter=0;" edge="1" parent="WIyWlLk6GJQsqaUBKTNV-1">
          <mxGeometry width="50" height="50" relative="1" as="geometry">
            <mxPoint x="-969" y="-879" as="sourcePoint" />
            <mxPoint x="-970.04" y="-841.02" as="targetPoint" />
          </mxGeometry>
        </mxCell>
      </root>
    </mxGraphModel>
  </diagram>
  <diagram id="06WVbvsZRKOrI7tfQDve" name="Page-2">
    <mxGraphModel dx="1079" dy="661" grid="0" gridSize="10" guides="1" tooltips="1" connect="1" arrows="1" fold="1" page="1" pageScale="1" pageWidth="827" pageHeight="1169" math="0" shadow="0">
      <root>
        <mxCell id="0" />
        <mxCell id="1" parent="0" />
        <mxCell id="W3po3G3_8q7pXiXwqWU--6" value="Document Embedding and VectoreStore " style="swimlane;startSize=20;horizontal=1;containerType=tree;" vertex="1" parent="1">
          <mxGeometry x="30" y="100" width="780" height="240" as="geometry" />
        </mxCell>
        <mxCell id="W3po3G3_8q7pXiXwqWU--54" style="edgeStyle=elbowEdgeStyle;rounded=0;orthogonalLoop=1;jettySize=auto;html=1;startArrow=none;endArrow=classic;exitX=1;exitY=0.25;exitDx=0;exitDy=0;entryX=0;entryY=0.5;entryDx=0;entryDy=0;strokeColor=default;" edge="1" parent="W3po3G3_8q7pXiXwqWU--6">
          <mxGeometry relative="1" as="geometry">
            <mxPoint x="270" y="72" as="sourcePoint" />
            <mxPoint x="330" y="72" as="targetPoint" />
            <Array as="points">
              <mxPoint x="300" y="80" />
              <mxPoint x="280" y="70" />
            </Array>
          </mxGeometry>
        </mxCell>
        <mxCell id="W3po3G3_8q7pXiXwqWU--51" value="Create&amp;nbsp; VectoreStore" style="whiteSpace=wrap;html=1;treeFolding=1;treeMoving=1;newEdgeStyle={&quot;edgeStyle&quot;:&quot;elbowEdgeStyle&quot;,&quot;startArrow&quot;:&quot;none&quot;,&quot;endArrow&quot;:&quot;none&quot;};" vertex="1" parent="W3po3G3_8q7pXiXwqWU--6">
          <mxGeometry x="330" y="50" width="120" height="40" as="geometry" />
        </mxCell>
        <mxCell id="W3po3G3_8q7pXiXwqWU--97" value="Create&amp;nbsp; Embedding of documents" style="whiteSpace=wrap;html=1;treeFolding=1;treeMoving=1;newEdgeStyle={&quot;edgeStyle&quot;:&quot;elbowEdgeStyle&quot;,&quot;startArrow&quot;:&quot;none&quot;,&quot;endArrow&quot;:&quot;none&quot;};" vertex="1" parent="W3po3G3_8q7pXiXwqWU--6">
          <mxGeometry x="150" y="50" width="120" height="40" as="geometry" />
        </mxCell>
        <mxCell id="W3po3G3_8q7pXiXwqWU--115" style="edgeStyle=orthogonalEdgeStyle;shape=connector;rounded=0;orthogonalLoop=1;jettySize=auto;html=1;entryX=0.083;entryY=0.725;entryDx=0;entryDy=0;entryPerimeter=0;labelBackgroundColor=default;strokeColor=default;fontFamily=Helvetica;fontSize=11;fontColor=default;endArrow=classic;" edge="1" parent="W3po3G3_8q7pXiXwqWU--6">
          <mxGeometry relative="1" as="geometry">
            <mxPoint x="67" y="73" as="sourcePoint" />
            <mxPoint x="151.96000000000004" y="73" as="targetPoint" />
          </mxGeometry>
        </mxCell>
        <object label="Documents&lt;br&gt;" Documents="" id="W3po3G3_8q7pXiXwqWU--109">
          <mxCell style="sketch=0;outlineConnect=0;fontColor=#232F3E;gradientColor=none;fillColor=#232F3D;strokeColor=none;dashed=0;verticalLabelPosition=bottom;verticalAlign=top;align=center;html=1;fontSize=12;fontStyle=0;aspect=fixed;pointerEvents=1;shape=mxgraph.aws4.documents2;fontFamily=Helvetica;" vertex="1" parent="W3po3G3_8q7pXiXwqWU--6">
            <mxGeometry y="40" width="67" height="78" as="geometry" />
          </mxCell>
        </object>
        <mxCell id="W3po3G3_8q7pXiXwqWU--17" value="Retrive Answer " style="swimlane;startSize=20;horizontal=1;containerType=tree;" vertex="1" parent="1">
          <mxGeometry x="40" y="560" width="780" height="322" as="geometry" />
        </mxCell>
        <mxCell id="W3po3G3_8q7pXiXwqWU--27" style="edgeStyle=elbowEdgeStyle;rounded=0;orthogonalLoop=1;jettySize=auto;html=1;startArrow=none;endArrow=classic;entryX=0;entryY=0.5;entryDx=0;entryDy=0;" edge="1" parent="W3po3G3_8q7pXiXwqWU--17" source="W3po3G3_8q7pXiXwqWU--19" target="W3po3G3_8q7pXiXwqWU--23">
          <mxGeometry relative="1" as="geometry" />
        </mxCell>
        <mxCell id="W3po3G3_8q7pXiXwqWU--19" value="Create&amp;nbsp; Prompt Template" style="whiteSpace=wrap;html=1;treeFolding=1;treeMoving=1;newEdgeStyle={&quot;edgeStyle&quot;:&quot;elbowEdgeStyle&quot;,&quot;startArrow&quot;:&quot;none&quot;,&quot;endArrow&quot;:&quot;none&quot;};" vertex="1" parent="W3po3G3_8q7pXiXwqWU--17">
          <mxGeometry x="140" y="60" width="120" height="40" as="geometry" />
        </mxCell>
        <mxCell id="W3po3G3_8q7pXiXwqWU--21" style="edgeStyle=orthogonalEdgeStyle;rounded=0;orthogonalLoop=1;jettySize=auto;html=1;entryX=0;entryY=0.75;entryDx=0;entryDy=0;" edge="1" parent="W3po3G3_8q7pXiXwqWU--17">
          <mxGeometry relative="1" as="geometry">
            <mxPoint x="110" y="82" as="sourcePoint" />
            <mxPoint x="140" y="82" as="targetPoint" />
            <Array as="points">
              <mxPoint x="80" y="82" />
              <mxPoint x="80" y="82" />
            </Array>
          </mxGeometry>
        </mxCell>
        <mxCell id="W3po3G3_8q7pXiXwqWU--69" style="edgeStyle=elbowEdgeStyle;rounded=0;orthogonalLoop=1;jettySize=auto;html=1;startArrow=none;endArrow=none;" edge="1" parent="W3po3G3_8q7pXiXwqWU--17" source="W3po3G3_8q7pXiXwqWU--23">
          <mxGeometry relative="1" as="geometry">
            <mxPoint x="390" y="140" as="targetPoint" />
          </mxGeometry>
        </mxCell>
        <mxCell id="W3po3G3_8q7pXiXwqWU--23" value="Get answer with on Retriveal QA Chain&amp;nbsp;" style="whiteSpace=wrap;html=1;treeFolding=1;treeMoving=1;newEdgeStyle={&quot;edgeStyle&quot;:&quot;elbowEdgeStyle&quot;,&quot;startArrow&quot;:&quot;none&quot;,&quot;endArrow&quot;:&quot;none&quot;};" vertex="1" parent="W3po3G3_8q7pXiXwqWU--17">
          <mxGeometry x="330" y="60" width="120" height="40" as="geometry" />
        </mxCell>
        <mxCell id="W3po3G3_8q7pXiXwqWU--48" style="edgeStyle=orthogonalEdgeStyle;rounded=0;orthogonalLoop=1;jettySize=auto;html=1;entryX=0.575;entryY=1.1;entryDx=0;entryDy=0;entryPerimeter=0;exitX=1;exitY=0.5;exitDx=0;exitDy=0;" edge="1" parent="W3po3G3_8q7pXiXwqWU--17" source="W3po3G3_8q7pXiXwqWU--120" target="W3po3G3_8q7pXiXwqWU--19">
          <mxGeometry relative="1" as="geometry" />
        </mxCell>
        <mxCell id="W3po3G3_8q7pXiXwqWU--67" style="edgeStyle=elbowEdgeStyle;rounded=0;orthogonalLoop=1;jettySize=auto;html=1;startArrow=none;endArrow=none;" edge="1" parent="W3po3G3_8q7pXiXwqWU--17">
          <mxGeometry relative="1" as="geometry">
            <mxPoint x="60" y="380" as="targetPoint" />
            <mxPoint x="390" y="137" as="sourcePoint" />
            <Array as="points">
              <mxPoint x="280" y="237" />
            </Array>
          </mxGeometry>
        </mxCell>
        <object label="Topn(n) reeveant &lt;br&gt;Documents" Documents="" id="W3po3G3_8q7pXiXwqWU--119">
          <mxCell style="sketch=0;outlineConnect=0;fontColor=#232F3E;gradientColor=none;fillColor=#232F3D;strokeColor=none;dashed=0;verticalLabelPosition=bottom;verticalAlign=top;align=center;html=1;fontSize=12;fontStyle=0;aspect=fixed;pointerEvents=1;shape=mxgraph.aws4.documents2;fontFamily=Helvetica;" vertex="1" parent="W3po3G3_8q7pXiXwqWU--17">
            <mxGeometry x="10" y="40" width="67" height="78" as="geometry" />
          </mxCell>
        </object>
        <mxCell id="W3po3G3_8q7pXiXwqWU--120" value="User Query" style="shape=image;html=1;verticalAlign=top;verticalLabelPosition=bottom;labelBackgroundColor=#ffffff;imageAspect=0;aspect=fixed;image=https://cdn1.iconfinder.com/data/icons/CrystalClear/22x22/actions/frame_query.png;fontFamily=Helvetica;fontSize=11;fontColor=default;" vertex="1" parent="W3po3G3_8q7pXiXwqWU--17">
          <mxGeometry x="16" y="169" width="61" height="61" as="geometry" />
        </mxCell>
        <mxCell id="W3po3G3_8q7pXiXwqWU--123" value="" style="shape=image;html=1;verticalAlign=top;verticalLabelPosition=bottom;labelBackgroundColor=#ffffff;imageAspect=0;aspect=fixed;image=https://cdn4.iconfinder.com/data/icons/socialcones/508/Quora-128.png;fontFamily=Helvetica;fontSize=11;fontColor=default;" vertex="1" parent="W3po3G3_8q7pXiXwqWU--17">
          <mxGeometry x="10" y="160" width="70" height="70" as="geometry" />
        </mxCell>
        <mxCell id="W3po3G3_8q7pXiXwqWU--32" value="Query Embedding and Index Search " style="swimlane;startSize=20;horizontal=1;containerType=tree;" vertex="1" parent="1">
          <mxGeometry x="40" y="370" width="780" height="240" as="geometry" />
        </mxCell>
        <mxCell id="W3po3G3_8q7pXiXwqWU--33" style="edgeStyle=elbowEdgeStyle;rounded=0;orthogonalLoop=1;jettySize=auto;html=1;startArrow=none;endArrow=classic;entryX=0;entryY=0.5;entryDx=0;entryDy=0;" edge="1" parent="W3po3G3_8q7pXiXwqWU--32" source="W3po3G3_8q7pXiXwqWU--34" target="W3po3G3_8q7pXiXwqWU--37">
          <mxGeometry relative="1" as="geometry" />
        </mxCell>
        <mxCell id="W3po3G3_8q7pXiXwqWU--34" value="Create&amp;nbsp; Embedding of Query" style="whiteSpace=wrap;html=1;treeFolding=1;treeMoving=1;newEdgeStyle={&quot;edgeStyle&quot;:&quot;elbowEdgeStyle&quot;,&quot;startArrow&quot;:&quot;none&quot;,&quot;endArrow&quot;:&quot;none&quot;};" vertex="1" parent="W3po3G3_8q7pXiXwqWU--32">
          <mxGeometry x="140" y="60" width="120" height="40" as="geometry" />
        </mxCell>
        <mxCell id="W3po3G3_8q7pXiXwqWU--35" style="edgeStyle=orthogonalEdgeStyle;rounded=0;orthogonalLoop=1;jettySize=auto;html=1;entryX=0;entryY=0.75;entryDx=0;entryDy=0;" edge="1" parent="W3po3G3_8q7pXiXwqWU--32">
          <mxGeometry relative="1" as="geometry">
            <mxPoint x="60" y="81" as="sourcePoint" />
            <mxPoint x="140" y="81" as="targetPoint" />
          </mxGeometry>
        </mxCell>
        <mxCell id="W3po3G3_8q7pXiXwqWU--39" style="edgeStyle=elbowEdgeStyle;rounded=0;orthogonalLoop=1;jettySize=auto;html=1;startArrow=none;endArrow=classic;entryX=0;entryY=0.5;entryDx=0;entryDy=0;" edge="1" parent="W3po3G3_8q7pXiXwqWU--32" source="W3po3G3_8q7pXiXwqWU--37" target="W3po3G3_8q7pXiXwqWU--40">
          <mxGeometry relative="1" as="geometry">
            <mxPoint x="600" y="80" as="targetPoint" />
          </mxGeometry>
        </mxCell>
        <mxCell id="W3po3G3_8q7pXiXwqWU--37" value="Index Search" style="whiteSpace=wrap;html=1;treeFolding=1;treeMoving=1;newEdgeStyle={&quot;edgeStyle&quot;:&quot;elbowEdgeStyle&quot;,&quot;startArrow&quot;:&quot;none&quot;,&quot;endArrow&quot;:&quot;none&quot;};" vertex="1" parent="W3po3G3_8q7pXiXwqWU--32">
          <mxGeometry x="330" y="60" width="120" height="40" as="geometry" />
        </mxCell>
        <mxCell id="W3po3G3_8q7pXiXwqWU--50" style="edgeStyle=elbowEdgeStyle;rounded=0;orthogonalLoop=1;jettySize=auto;html=1;startArrow=none;endArrow=none;" edge="1" parent="W3po3G3_8q7pXiXwqWU--32" source="W3po3G3_8q7pXiXwqWU--40">
          <mxGeometry relative="1" as="geometry">
            <mxPoint x="650" y="170" as="targetPoint" />
          </mxGeometry>
        </mxCell>
        <mxCell id="W3po3G3_8q7pXiXwqWU--40" value="Retrieve Top(n) relevant documents" style="whiteSpace=wrap;html=1;treeFolding=1;treeMoving=1;newEdgeStyle={&quot;edgeStyle&quot;:&quot;elbowEdgeStyle&quot;,&quot;startArrow&quot;:&quot;none&quot;,&quot;endArrow&quot;:&quot;none&quot;};" vertex="1" parent="W3po3G3_8q7pXiXwqWU--32">
          <mxGeometry x="590" y="60" width="120" height="40" as="geometry" />
        </mxCell>
        <mxCell id="W3po3G3_8q7pXiXwqWU--116" value="User Query" style="shape=image;html=1;verticalAlign=top;verticalLabelPosition=bottom;labelBackgroundColor=#ffffff;imageAspect=0;aspect=fixed;image=https://cdn1.iconfinder.com/data/icons/CrystalClear/22x22/actions/frame_query.png;fontFamily=Helvetica;fontSize=11;fontColor=default;" vertex="1" parent="W3po3G3_8q7pXiXwqWU--32">
          <mxGeometry x="13" y="49.5" width="61" height="61" as="geometry" />
        </mxCell>
        <mxCell id="W3po3G3_8q7pXiXwqWU--117" style="edgeStyle=orthogonalEdgeStyle;shape=connector;rounded=0;orthogonalLoop=1;jettySize=auto;html=1;exitX=0;exitY=0.5;exitDx=0;exitDy=0;entryX=0.318;entryY=0.5;entryDx=0;entryDy=0;entryPerimeter=0;labelBackgroundColor=default;strokeColor=default;fontFamily=Helvetica;fontSize=11;fontColor=default;endArrow=classic;" edge="1" parent="W3po3G3_8q7pXiXwqWU--32" source="W3po3G3_8q7pXiXwqWU--116" target="W3po3G3_8q7pXiXwqWU--116">
          <mxGeometry relative="1" as="geometry" />
        </mxCell>
        <mxCell id="W3po3G3_8q7pXiXwqWU--126" value="" style="shape=image;html=1;verticalAlign=top;verticalLabelPosition=bottom;labelBackgroundColor=#ffffff;imageAspect=0;aspect=fixed;image=https://cdn4.iconfinder.com/data/icons/socialcones/508/Quora-128.png;fontFamily=Helvetica;fontSize=11;fontColor=default;" vertex="1" parent="W3po3G3_8q7pXiXwqWU--32">
          <mxGeometry x="8.5" y="45" width="70" height="70" as="geometry" />
        </mxCell>
        <mxCell id="W3po3G3_8q7pXiXwqWU--129" style="edgeStyle=elbowEdgeStyle;rounded=0;orthogonalLoop=1;jettySize=auto;html=1;startArrow=none;endArrow=none;" edge="1" parent="W3po3G3_8q7pXiXwqWU--32">
          <mxGeometry relative="1" as="geometry">
            <mxPoint x="60" y="170" as="targetPoint" />
            <mxPoint x="650" y="170" as="sourcePoint" />
            <Array as="points">
              <mxPoint x="540" y="270" />
            </Array>
          </mxGeometry>
        </mxCell>
        <mxCell id="W3po3G3_8q7pXiXwqWU--131" value="" style="endArrow=classic;html=1;rounded=0;" edge="1" parent="W3po3G3_8q7pXiXwqWU--32">
          <mxGeometry width="50" height="50" relative="1" as="geometry">
            <mxPoint x="60" y="170" as="sourcePoint" />
            <mxPoint x="60" y="230" as="targetPoint" />
          </mxGeometry>
        </mxCell>
        <mxCell id="W3po3G3_8q7pXiXwqWU--53" style="edgeStyle=elbowEdgeStyle;rounded=0;orthogonalLoop=1;jettySize=auto;html=1;startArrow=none;endArrow=classic;jumpStyle=line;" edge="1" parent="1" source="W3po3G3_8q7pXiXwqWU--51">
          <mxGeometry relative="1" as="geometry">
            <mxPoint x="430" y="430" as="targetPoint" />
          </mxGeometry>
        </mxCell>
        <mxCell id="W3po3G3_8q7pXiXwqWU--55" value="Apply Constituational Rules " style="swimlane;startSize=20;horizontal=1;containerType=tree;" vertex="1" parent="1">
          <mxGeometry x="40" y="910" width="780" height="270" as="geometry" />
        </mxCell>
        <mxCell id="W3po3G3_8q7pXiXwqWU--56" style="edgeStyle=elbowEdgeStyle;rounded=0;orthogonalLoop=1;jettySize=auto;html=1;startArrow=none;endArrow=classic;entryX=0;entryY=0.5;entryDx=0;entryDy=0;" edge="1" parent="W3po3G3_8q7pXiXwqWU--55" source="W3po3G3_8q7pXiXwqWU--57" target="W3po3G3_8q7pXiXwqWU--60">
          <mxGeometry relative="1" as="geometry" />
        </mxCell>
        <mxCell id="W3po3G3_8q7pXiXwqWU--57" value="Create&amp;nbsp; Prompt Template" style="whiteSpace=wrap;html=1;treeFolding=1;treeMoving=1;newEdgeStyle={&quot;edgeStyle&quot;:&quot;elbowEdgeStyle&quot;,&quot;startArrow&quot;:&quot;none&quot;,&quot;endArrow&quot;:&quot;none&quot;};" vertex="1" parent="W3po3G3_8q7pXiXwqWU--55">
          <mxGeometry x="140" y="60" width="120" height="40" as="geometry" />
        </mxCell>
        <mxCell id="W3po3G3_8q7pXiXwqWU--58" style="edgeStyle=orthogonalEdgeStyle;rounded=0;orthogonalLoop=1;jettySize=auto;html=1;entryX=0;entryY=0.75;entryDx=0;entryDy=0;" edge="1" parent="W3po3G3_8q7pXiXwqWU--55">
          <mxGeometry relative="1" as="geometry">
            <mxPoint x="110" y="82" as="sourcePoint" />
            <mxPoint x="140" y="82" as="targetPoint" />
          </mxGeometry>
        </mxCell>
        <mxCell id="W3po3G3_8q7pXiXwqWU--59" value="&lt;h1&gt;&lt;font style=&quot;font-size: 12px;&quot;&gt;Answers&lt;/font&gt;&lt;/h1&gt;&lt;p&gt;&lt;span style=&quot;font-size: 10px;&quot;&gt;Retrieved Answers&lt;/span&gt;&lt;/p&gt;&lt;p&gt;&lt;span style=&quot;font-size: 10px;&quot;&gt;&lt;br&gt;&lt;/span&gt;&lt;/p&gt;&lt;p&gt;&lt;span style=&quot;font-size: 10px;&quot;&gt;&lt;br&gt;&lt;/span&gt;&lt;/p&gt;" style="text;html=1;strokeColor=default;fillColor=none;spacing=5;spacingTop=-20;whiteSpace=wrap;overflow=hidden;rounded=0;strokeWidth=2;" vertex="1" parent="W3po3G3_8q7pXiXwqWU--55">
          <mxGeometry y="50" width="110" height="100" as="geometry" />
        </mxCell>
        <mxCell id="W3po3G3_8q7pXiXwqWU--77" style="rounded=0;orthogonalLoop=1;jettySize=auto;html=1;startArrow=none;endArrow=classic;exitX=1;exitY=0.5;exitDx=0;exitDy=0;" edge="1" parent="W3po3G3_8q7pXiXwqWU--55" source="W3po3G3_8q7pXiXwqWU--60">
          <mxGeometry relative="1" as="geometry">
            <mxPoint x="540" y="80" as="targetPoint" />
          </mxGeometry>
        </mxCell>
        <mxCell id="W3po3G3_8q7pXiXwqWU--60" value="Get answer with on Constitutional Chain&amp;nbsp;" style="whiteSpace=wrap;html=1;treeFolding=1;treeMoving=1;newEdgeStyle={&quot;edgeStyle&quot;:&quot;elbowEdgeStyle&quot;,&quot;startArrow&quot;:&quot;none&quot;,&quot;endArrow&quot;:&quot;none&quot;};" vertex="1" parent="W3po3G3_8q7pXiXwqWU--55">
          <mxGeometry x="330" y="60" width="120" height="40" as="geometry" />
        </mxCell>
        <mxCell id="W3po3G3_8q7pXiXwqWU--61" style="edgeStyle=orthogonalEdgeStyle;rounded=0;orthogonalLoop=1;jettySize=auto;html=1;entryX=0.575;entryY=1.1;entryDx=0;entryDy=0;entryPerimeter=0;" edge="1" parent="W3po3G3_8q7pXiXwqWU--55" source="W3po3G3_8q7pXiXwqWU--62" target="W3po3G3_8q7pXiXwqWU--57">
          <mxGeometry relative="1" as="geometry" />
        </mxCell>
        <mxCell id="W3po3G3_8q7pXiXwqWU--62" value="&lt;h1&gt;&lt;font style=&quot;font-size: 12px;&quot;&gt;Rules&lt;/font&gt;&lt;/h1&gt;&lt;p&gt;&lt;span style=&quot;font-size: 10px;&quot;&gt;Constituatonal Policies&amp;nbsp;&lt;/span&gt;&lt;/p&gt;&lt;p&gt;&lt;span style=&quot;font-size: 10px;&quot;&gt;&lt;br&gt;&lt;/span&gt;&lt;/p&gt;" style="text;html=1;strokeColor=default;fillColor=none;spacing=5;spacingTop=-20;whiteSpace=wrap;overflow=hidden;rounded=0;strokeWidth=2;" vertex="1" parent="W3po3G3_8q7pXiXwqWU--55">
          <mxGeometry y="169" width="110" height="90" as="geometry" />
        </mxCell>
        <mxCell id="W3po3G3_8q7pXiXwqWU--74" value="" style="endArrow=classic;html=1;rounded=0;" edge="1" parent="W3po3G3_8q7pXiXwqWU--55">
          <mxGeometry width="50" height="50" relative="1" as="geometry">
            <mxPoint x="61" y="27" as="sourcePoint" />
            <mxPoint x="61" y="47" as="targetPoint" />
          </mxGeometry>
        </mxCell>
        <mxCell id="W3po3G3_8q7pXiXwqWU--79" value="&lt;font style=&quot;font-size: 12px;&quot;&gt;Answers with&lt;br&gt;&amp;nbsp;Rules Applied&lt;/font&gt;&amp;nbsp;" style="text;strokeColor=none;fillColor=none;html=1;fontSize=24;fontStyle=1;verticalAlign=middle;align=center;" vertex="1" parent="W3po3G3_8q7pXiXwqWU--55">
          <mxGeometry x="550" y="60" width="100" height="40" as="geometry" />
        </mxCell>
      </root>
    </mxGraphModel>
  </diagram>
  <diagram name="Copy of Page-2" id="O1H7kl5El9cYYPyf3o2I">
    <mxGraphModel dx="1434" dy="661" grid="0" gridSize="10" guides="1" tooltips="1" connect="1" arrows="1" fold="1" page="1" pageScale="1" pageWidth="827" pageHeight="1169" math="0" shadow="0">
      <root>
        <mxCell id="Gq4j9S98Yxt09iHdp_nS-0" />
        <mxCell id="Gq4j9S98Yxt09iHdp_nS-1" parent="Gq4j9S98Yxt09iHdp_nS-0" />
        <mxCell id="Gq4j9S98Yxt09iHdp_nS-2" value="Document Embedding and VectoreStore " style="swimlane;startSize=20;horizontal=1;containerType=tree;" vertex="1" parent="Gq4j9S98Yxt09iHdp_nS-1">
          <mxGeometry x="30" y="100" width="780" height="240" as="geometry" />
        </mxCell>
        <mxCell id="Gq4j9S98Yxt09iHdp_nS-3" style="edgeStyle=elbowEdgeStyle;rounded=0;orthogonalLoop=1;jettySize=auto;html=1;startArrow=none;endArrow=classic;exitX=1;exitY=0.25;exitDx=0;exitDy=0;entryX=0;entryY=0.5;entryDx=0;entryDy=0;strokeColor=default;" edge="1" parent="Gq4j9S98Yxt09iHdp_nS-2">
          <mxGeometry relative="1" as="geometry">
            <mxPoint x="270" y="72" as="sourcePoint" />
            <mxPoint x="330" y="72" as="targetPoint" />
            <Array as="points">
              <mxPoint x="300" y="80" />
              <mxPoint x="280" y="70" />
            </Array>
          </mxGeometry>
        </mxCell>
        <mxCell id="Gq4j9S98Yxt09iHdp_nS-4" value="Create&amp;nbsp; VectoreStore" style="whiteSpace=wrap;html=1;treeFolding=1;treeMoving=1;newEdgeStyle={&quot;edgeStyle&quot;:&quot;elbowEdgeStyle&quot;,&quot;startArrow&quot;:&quot;none&quot;,&quot;endArrow&quot;:&quot;none&quot;};" vertex="1" parent="Gq4j9S98Yxt09iHdp_nS-2">
          <mxGeometry x="330" y="50" width="120" height="40" as="geometry" />
        </mxCell>
        <mxCell id="Gq4j9S98Yxt09iHdp_nS-5" value="Create&amp;nbsp; Embedding of documents" style="whiteSpace=wrap;html=1;treeFolding=1;treeMoving=1;newEdgeStyle={&quot;edgeStyle&quot;:&quot;elbowEdgeStyle&quot;,&quot;startArrow&quot;:&quot;none&quot;,&quot;endArrow&quot;:&quot;none&quot;};" vertex="1" parent="Gq4j9S98Yxt09iHdp_nS-2">
          <mxGeometry x="150" y="50" width="120" height="40" as="geometry" />
        </mxCell>
        <mxCell id="Gq4j9S98Yxt09iHdp_nS-6" style="edgeStyle=orthogonalEdgeStyle;shape=connector;rounded=0;orthogonalLoop=1;jettySize=auto;html=1;entryX=0.083;entryY=0.725;entryDx=0;entryDy=0;entryPerimeter=0;labelBackgroundColor=default;strokeColor=default;fontFamily=Helvetica;fontSize=11;fontColor=default;endArrow=classic;" edge="1" parent="Gq4j9S98Yxt09iHdp_nS-2">
          <mxGeometry relative="1" as="geometry">
            <mxPoint x="67" y="73" as="sourcePoint" />
            <mxPoint x="151.96000000000004" y="73" as="targetPoint" />
          </mxGeometry>
        </mxCell>
        <object label="Documents&lt;br&gt;" Documents="" id="Gq4j9S98Yxt09iHdp_nS-7">
          <mxCell style="sketch=0;outlineConnect=0;fontColor=#232F3E;gradientColor=none;fillColor=#232F3D;strokeColor=none;dashed=0;verticalLabelPosition=bottom;verticalAlign=top;align=center;html=1;fontSize=12;fontStyle=0;aspect=fixed;pointerEvents=1;shape=mxgraph.aws4.documents2;fontFamily=Helvetica;" vertex="1" parent="Gq4j9S98Yxt09iHdp_nS-2">
            <mxGeometry y="40" width="67" height="78" as="geometry" />
          </mxCell>
        </object>
        <mxCell id="Gq4j9S98Yxt09iHdp_nS-8" value="Retrive Answer " style="swimlane;startSize=20;horizontal=1;containerType=tree;" vertex="1" parent="Gq4j9S98Yxt09iHdp_nS-1">
          <mxGeometry x="40" y="560" width="780" height="322" as="geometry" />
        </mxCell>
        <mxCell id="Gq4j9S98Yxt09iHdp_nS-9" style="edgeStyle=elbowEdgeStyle;rounded=0;orthogonalLoop=1;jettySize=auto;html=1;startArrow=none;endArrow=classic;entryX=0;entryY=0.5;entryDx=0;entryDy=0;" edge="1" parent="Gq4j9S98Yxt09iHdp_nS-8" source="Gq4j9S98Yxt09iHdp_nS-10" target="Gq4j9S98Yxt09iHdp_nS-13">
          <mxGeometry relative="1" as="geometry" />
        </mxCell>
        <mxCell id="Gq4j9S98Yxt09iHdp_nS-10" value="Create&amp;nbsp; Prompt Template" style="whiteSpace=wrap;html=1;treeFolding=1;treeMoving=1;newEdgeStyle={&quot;edgeStyle&quot;:&quot;elbowEdgeStyle&quot;,&quot;startArrow&quot;:&quot;none&quot;,&quot;endArrow&quot;:&quot;none&quot;};" vertex="1" parent="Gq4j9S98Yxt09iHdp_nS-8">
          <mxGeometry x="140" y="60" width="120" height="40" as="geometry" />
        </mxCell>
        <mxCell id="Gq4j9S98Yxt09iHdp_nS-11" style="edgeStyle=orthogonalEdgeStyle;rounded=0;orthogonalLoop=1;jettySize=auto;html=1;entryX=0;entryY=0.75;entryDx=0;entryDy=0;" edge="1" parent="Gq4j9S98Yxt09iHdp_nS-8">
          <mxGeometry relative="1" as="geometry">
            <mxPoint x="110" y="82" as="sourcePoint" />
            <mxPoint x="140" y="82" as="targetPoint" />
            <Array as="points">
              <mxPoint x="80" y="82" />
              <mxPoint x="80" y="82" />
            </Array>
          </mxGeometry>
        </mxCell>
        <mxCell id="Gq4j9S98Yxt09iHdp_nS-13" value="Get answer with on Retriveal QA Chain&amp;nbsp;" style="whiteSpace=wrap;html=1;treeFolding=1;treeMoving=1;newEdgeStyle={&quot;edgeStyle&quot;:&quot;elbowEdgeStyle&quot;,&quot;startArrow&quot;:&quot;none&quot;,&quot;endArrow&quot;:&quot;none&quot;};" vertex="1" parent="Gq4j9S98Yxt09iHdp_nS-8">
          <mxGeometry x="330" y="60" width="120" height="40" as="geometry" />
        </mxCell>
        <mxCell id="Gq4j9S98Yxt09iHdp_nS-14" style="edgeStyle=orthogonalEdgeStyle;rounded=0;orthogonalLoop=1;jettySize=auto;html=1;entryX=0.575;entryY=1.1;entryDx=0;entryDy=0;entryPerimeter=0;exitX=1;exitY=0.5;exitDx=0;exitDy=0;" edge="1" parent="Gq4j9S98Yxt09iHdp_nS-8" source="Gq4j9S98Yxt09iHdp_nS-17" target="Gq4j9S98Yxt09iHdp_nS-10">
          <mxGeometry relative="1" as="geometry" />
        </mxCell>
        <object label="Topn(n) reeveant &lt;br&gt;Documents" Documents="" id="Gq4j9S98Yxt09iHdp_nS-16">
          <mxCell style="sketch=0;outlineConnect=0;fontColor=#232F3E;gradientColor=none;fillColor=#232F3D;strokeColor=none;dashed=0;verticalLabelPosition=bottom;verticalAlign=top;align=center;html=1;fontSize=12;fontStyle=0;aspect=fixed;pointerEvents=1;shape=mxgraph.aws4.documents2;fontFamily=Helvetica;" vertex="1" parent="Gq4j9S98Yxt09iHdp_nS-8">
            <mxGeometry x="10" y="40" width="67" height="78" as="geometry" />
          </mxCell>
        </object>
        <mxCell id="Gq4j9S98Yxt09iHdp_nS-17" value="User Query" style="shape=image;html=1;verticalAlign=top;verticalLabelPosition=bottom;labelBackgroundColor=#ffffff;imageAspect=0;aspect=fixed;image=https://cdn1.iconfinder.com/data/icons/CrystalClear/22x22/actions/frame_query.png;fontFamily=Helvetica;fontSize=11;fontColor=default;" vertex="1" parent="Gq4j9S98Yxt09iHdp_nS-8">
          <mxGeometry x="16" y="169" width="61" height="61" as="geometry" />
        </mxCell>
        <mxCell id="Gq4j9S98Yxt09iHdp_nS-18" value="" style="shape=image;html=1;verticalAlign=top;verticalLabelPosition=bottom;labelBackgroundColor=#ffffff;imageAspect=0;aspect=fixed;image=https://cdn4.iconfinder.com/data/icons/socialcones/508/Quora-128.png;fontFamily=Helvetica;fontSize=11;fontColor=default;" vertex="1" parent="Gq4j9S98Yxt09iHdp_nS-8">
          <mxGeometry x="10" y="160" width="70" height="70" as="geometry" />
        </mxCell>
        <mxCell id="wkXU7BWkq0qa-fBF2GoY-1" value="" style="endArrow=classic;html=1;rounded=0;" edge="1" parent="Gq4j9S98Yxt09iHdp_nS-8">
          <mxGeometry width="50" height="50" relative="1" as="geometry">
            <mxPoint x="450" y="81.5" as="sourcePoint" />
            <mxPoint x="503" y="82" as="targetPoint" />
          </mxGeometry>
        </mxCell>
        <mxCell id="wkXU7BWkq0qa-fBF2GoY-2" value="Gnerated Text" style="text;html=1;strokeColor=none;fillColor=none;align=center;verticalAlign=middle;whiteSpace=wrap;rounded=0;" vertex="1" parent="Gq4j9S98Yxt09iHdp_nS-8">
          <mxGeometry x="524" y="70" width="60" height="30" as="geometry" />
        </mxCell>
        <mxCell id="Gq4j9S98Yxt09iHdp_nS-19" value="Query Embedding and Index Search " style="swimlane;startSize=20;horizontal=1;containerType=tree;" vertex="1" parent="Gq4j9S98Yxt09iHdp_nS-1">
          <mxGeometry x="40" y="370" width="780" height="240" as="geometry" />
        </mxCell>
        <mxCell id="Gq4j9S98Yxt09iHdp_nS-20" style="edgeStyle=elbowEdgeStyle;rounded=0;orthogonalLoop=1;jettySize=auto;html=1;startArrow=none;endArrow=classic;entryX=0;entryY=0.5;entryDx=0;entryDy=0;" edge="1" parent="Gq4j9S98Yxt09iHdp_nS-19" source="Gq4j9S98Yxt09iHdp_nS-21" target="Gq4j9S98Yxt09iHdp_nS-24">
          <mxGeometry relative="1" as="geometry" />
        </mxCell>
        <mxCell id="Gq4j9S98Yxt09iHdp_nS-21" value="Create&amp;nbsp; Embedding of Query" style="whiteSpace=wrap;html=1;treeFolding=1;treeMoving=1;newEdgeStyle={&quot;edgeStyle&quot;:&quot;elbowEdgeStyle&quot;,&quot;startArrow&quot;:&quot;none&quot;,&quot;endArrow&quot;:&quot;none&quot;};" vertex="1" parent="Gq4j9S98Yxt09iHdp_nS-19">
          <mxGeometry x="140" y="60" width="120" height="40" as="geometry" />
        </mxCell>
        <mxCell id="Gq4j9S98Yxt09iHdp_nS-22" style="edgeStyle=orthogonalEdgeStyle;rounded=0;orthogonalLoop=1;jettySize=auto;html=1;entryX=0;entryY=0.75;entryDx=0;entryDy=0;" edge="1" parent="Gq4j9S98Yxt09iHdp_nS-19">
          <mxGeometry relative="1" as="geometry">
            <mxPoint x="60" y="81" as="sourcePoint" />
            <mxPoint x="140" y="81" as="targetPoint" />
          </mxGeometry>
        </mxCell>
        <mxCell id="Gq4j9S98Yxt09iHdp_nS-23" style="edgeStyle=elbowEdgeStyle;rounded=0;orthogonalLoop=1;jettySize=auto;html=1;startArrow=none;endArrow=classic;entryX=0;entryY=0.5;entryDx=0;entryDy=0;" edge="1" parent="Gq4j9S98Yxt09iHdp_nS-19" source="Gq4j9S98Yxt09iHdp_nS-24" target="Gq4j9S98Yxt09iHdp_nS-26">
          <mxGeometry relative="1" as="geometry">
            <mxPoint x="600" y="80" as="targetPoint" />
          </mxGeometry>
        </mxCell>
        <mxCell id="Gq4j9S98Yxt09iHdp_nS-24" value="Index Search" style="whiteSpace=wrap;html=1;treeFolding=1;treeMoving=1;newEdgeStyle={&quot;edgeStyle&quot;:&quot;elbowEdgeStyle&quot;,&quot;startArrow&quot;:&quot;none&quot;,&quot;endArrow&quot;:&quot;none&quot;};" vertex="1" parent="Gq4j9S98Yxt09iHdp_nS-19">
          <mxGeometry x="330" y="60" width="120" height="40" as="geometry" />
        </mxCell>
        <mxCell id="Gq4j9S98Yxt09iHdp_nS-25" style="edgeStyle=elbowEdgeStyle;rounded=0;orthogonalLoop=1;jettySize=auto;html=1;startArrow=none;endArrow=none;" edge="1" parent="Gq4j9S98Yxt09iHdp_nS-19" source="Gq4j9S98Yxt09iHdp_nS-26">
          <mxGeometry relative="1" as="geometry">
            <mxPoint x="650" y="170" as="targetPoint" />
          </mxGeometry>
        </mxCell>
        <mxCell id="Gq4j9S98Yxt09iHdp_nS-26" value="Retrieve Top(n) relevant documents" style="whiteSpace=wrap;html=1;treeFolding=1;treeMoving=1;newEdgeStyle={&quot;edgeStyle&quot;:&quot;elbowEdgeStyle&quot;,&quot;startArrow&quot;:&quot;none&quot;,&quot;endArrow&quot;:&quot;none&quot;};" vertex="1" parent="Gq4j9S98Yxt09iHdp_nS-19">
          <mxGeometry x="590" y="60" width="120" height="40" as="geometry" />
        </mxCell>
        <mxCell id="Gq4j9S98Yxt09iHdp_nS-27" value="User Query" style="shape=image;html=1;verticalAlign=top;verticalLabelPosition=bottom;labelBackgroundColor=#ffffff;imageAspect=0;aspect=fixed;image=https://cdn1.iconfinder.com/data/icons/CrystalClear/22x22/actions/frame_query.png;fontFamily=Helvetica;fontSize=11;fontColor=default;" vertex="1" parent="Gq4j9S98Yxt09iHdp_nS-19">
          <mxGeometry x="13" y="49.5" width="61" height="61" as="geometry" />
        </mxCell>
        <mxCell id="Gq4j9S98Yxt09iHdp_nS-28" style="edgeStyle=orthogonalEdgeStyle;shape=connector;rounded=0;orthogonalLoop=1;jettySize=auto;html=1;exitX=0;exitY=0.5;exitDx=0;exitDy=0;entryX=0.318;entryY=0.5;entryDx=0;entryDy=0;entryPerimeter=0;labelBackgroundColor=default;strokeColor=default;fontFamily=Helvetica;fontSize=11;fontColor=default;endArrow=classic;" edge="1" parent="Gq4j9S98Yxt09iHdp_nS-19" source="Gq4j9S98Yxt09iHdp_nS-27" target="Gq4j9S98Yxt09iHdp_nS-27">
          <mxGeometry relative="1" as="geometry" />
        </mxCell>
        <mxCell id="Gq4j9S98Yxt09iHdp_nS-29" value="" style="shape=image;html=1;verticalAlign=top;verticalLabelPosition=bottom;labelBackgroundColor=#ffffff;imageAspect=0;aspect=fixed;image=https://cdn4.iconfinder.com/data/icons/socialcones/508/Quora-128.png;fontFamily=Helvetica;fontSize=11;fontColor=default;" vertex="1" parent="Gq4j9S98Yxt09iHdp_nS-19">
          <mxGeometry x="8.5" y="45" width="70" height="70" as="geometry" />
        </mxCell>
        <mxCell id="Gq4j9S98Yxt09iHdp_nS-30" style="edgeStyle=elbowEdgeStyle;rounded=0;orthogonalLoop=1;jettySize=auto;html=1;startArrow=none;endArrow=none;" edge="1" parent="Gq4j9S98Yxt09iHdp_nS-19">
          <mxGeometry relative="1" as="geometry">
            <mxPoint x="60" y="170" as="targetPoint" />
            <mxPoint x="650" y="170" as="sourcePoint" />
            <Array as="points">
              <mxPoint x="540" y="270" />
            </Array>
          </mxGeometry>
        </mxCell>
        <mxCell id="Gq4j9S98Yxt09iHdp_nS-31" value="" style="endArrow=classic;html=1;rounded=0;" edge="1" parent="Gq4j9S98Yxt09iHdp_nS-19">
          <mxGeometry width="50" height="50" relative="1" as="geometry">
            <mxPoint x="60" y="170" as="sourcePoint" />
            <mxPoint x="60" y="230" as="targetPoint" />
          </mxGeometry>
        </mxCell>
        <mxCell id="Gq4j9S98Yxt09iHdp_nS-32" style="edgeStyle=elbowEdgeStyle;rounded=0;orthogonalLoop=1;jettySize=auto;html=1;startArrow=none;endArrow=classic;jumpStyle=line;" edge="1" parent="Gq4j9S98Yxt09iHdp_nS-1" source="Gq4j9S98Yxt09iHdp_nS-4">
          <mxGeometry relative="1" as="geometry">
            <mxPoint x="430" y="430" as="targetPoint" />
          </mxGeometry>
        </mxCell>
      </root>
    </mxGraphModel>
  </diagram>
  <diagram id="I2hjDhWPpq7qGrKjZy1o" name="Page-3">
    <mxGraphModel dx="1434" dy="661" grid="1" gridSize="10" guides="1" tooltips="1" connect="1" arrows="1" fold="1" page="1" pageScale="1" pageWidth="827" pageHeight="1169" math="0" shadow="0">
      <root>
        <mxCell id="0" />
        <mxCell id="1" parent="0" />
        <mxCell id="-SmrNzQtFmz0KVNYP7S3-1" value="CITI Autonomus Agents With LLM" style="swimlane;startSize=20;horizontal=1;containerType=tree;" vertex="1" parent="1">
          <mxGeometry x="27" y="40" width="1083" height="550" as="geometry" />
        </mxCell>
        <mxCell id="-SmrNzQtFmz0KVNYP7S3-3" value="Tools" style="whiteSpace=wrap;html=1;treeFolding=1;treeMoving=1;newEdgeStyle={&quot;edgeStyle&quot;:&quot;elbowEdgeStyle&quot;,&quot;startArrow&quot;:&quot;none&quot;,&quot;endArrow&quot;:&quot;none&quot;};" vertex="1" parent="-SmrNzQtFmz0KVNYP7S3-1">
          <mxGeometry x="213" y="160" width="120" height="40" as="geometry" />
        </mxCell>
        <mxCell id="-SmrNzQtFmz0KVNYP7S3-4" value="Document Summarization" style="whiteSpace=wrap;html=1;treeFolding=1;treeMoving=1;newEdgeStyle={&quot;edgeStyle&quot;:&quot;elbowEdgeStyle&quot;,&quot;startArrow&quot;:&quot;none&quot;,&quot;endArrow&quot;:&quot;none&quot;};" vertex="1" parent="-SmrNzQtFmz0KVNYP7S3-1">
          <mxGeometry x="13" y="40" width="120" height="40" as="geometry" />
        </mxCell>
        <mxCell id="-SmrNzQtFmz0KVNYP7S3-8" value="Question-Answering" style="whiteSpace=wrap;html=1;treeFolding=1;treeMoving=1;newEdgeStyle={&quot;edgeStyle&quot;:&quot;elbowEdgeStyle&quot;,&quot;startArrow&quot;:&quot;none&quot;,&quot;endArrow&quot;:&quot;none&quot;};" vertex="1" parent="-SmrNzQtFmz0KVNYP7S3-1">
          <mxGeometry x="13" y="160" width="120" height="40" as="geometry" />
        </mxCell>
        <mxCell id="-SmrNzQtFmz0KVNYP7S3-9" value="Search" style="whiteSpace=wrap;html=1;treeFolding=1;treeMoving=1;newEdgeStyle={&quot;edgeStyle&quot;:&quot;elbowEdgeStyle&quot;,&quot;startArrow&quot;:&quot;none&quot;,&quot;endArrow&quot;:&quot;none&quot;};" vertex="1" parent="-SmrNzQtFmz0KVNYP7S3-1">
          <mxGeometry x="13" y="280" width="120" height="40" as="geometry" />
        </mxCell>
        <mxCell id="-SmrNzQtFmz0KVNYP7S3-11" value="Agents" style="whiteSpace=wrap;html=1;treeFolding=1;treeMoving=1;newEdgeStyle={&quot;edgeStyle&quot;:&quot;elbowEdgeStyle&quot;,&quot;startArrow&quot;:&quot;none&quot;,&quot;endArrow&quot;:&quot;none&quot;};" vertex="1" parent="-SmrNzQtFmz0KVNYP7S3-1">
          <mxGeometry x="413" y="160" width="120" height="40" as="geometry" />
        </mxCell>
        <mxCell id="-SmrNzQtFmz0KVNYP7S3-12" value="Planning with PDDL" style="whiteSpace=wrap;html=1;treeFolding=1;treeMoving=1;newEdgeStyle={&quot;edgeStyle&quot;:&quot;elbowEdgeStyle&quot;,&quot;startArrow&quot;:&quot;none&quot;,&quot;endArrow&quot;:&quot;none&quot;};" vertex="1" parent="-SmrNzQtFmz0KVNYP7S3-1">
          <mxGeometry x="613" y="160" width="120" height="40" as="geometry" />
        </mxCell>
        <mxCell id="-SmrNzQtFmz0KVNYP7S3-13" value="Reflection with RAG+ReACt" style="whiteSpace=wrap;html=1;treeFolding=1;treeMoving=1;newEdgeStyle={&quot;edgeStyle&quot;:&quot;elbowEdgeStyle&quot;,&quot;startArrow&quot;:&quot;none&quot;,&quot;endArrow&quot;:&quot;none&quot;};" vertex="1" parent="-SmrNzQtFmz0KVNYP7S3-1">
          <mxGeometry x="813" y="40" width="120" height="40" as="geometry" />
        </mxCell>
        <mxCell id="-SmrNzQtFmz0KVNYP7S3-14" value="Self-Critics with CAI" style="whiteSpace=wrap;html=1;treeFolding=1;treeMoving=1;newEdgeStyle={&quot;edgeStyle&quot;:&quot;elbowEdgeStyle&quot;,&quot;startArrow&quot;:&quot;none&quot;,&quot;endArrow&quot;:&quot;none&quot;};" vertex="1" parent="-SmrNzQtFmz0KVNYP7S3-1">
          <mxGeometry x="813" y="160" width="120" height="40" as="geometry" />
        </mxCell>
        <mxCell id="-SmrNzQtFmz0KVNYP7S3-15" value="Chain Of Thoughts /Tree Of Thoughts" style="whiteSpace=wrap;html=1;treeFolding=1;treeMoving=1;newEdgeStyle={&quot;edgeStyle&quot;:&quot;elbowEdgeStyle&quot;,&quot;startArrow&quot;:&quot;none&quot;,&quot;endArrow&quot;:&quot;none&quot;};" vertex="1" parent="-SmrNzQtFmz0KVNYP7S3-1">
          <mxGeometry x="813" y="280" width="120" height="40" as="geometry" />
        </mxCell>
        <mxCell id="-SmrNzQtFmz0KVNYP7S3-20" value="" style="endArrow=none;html=1;rounded=0;labelBackgroundColor=default;strokeColor=default;fontFamily=Helvetica;fontSize=11;fontColor=default;shape=connector;" edge="1" parent="-SmrNzQtFmz0KVNYP7S3-1">
          <mxGeometry width="50" height="50" relative="1" as="geometry">
            <mxPoint x="173" y="300" as="sourcePoint" />
            <mxPoint x="173" y="58" as="targetPoint" />
          </mxGeometry>
        </mxCell>
        <mxCell id="-SmrNzQtFmz0KVNYP7S3-21" value="" style="endArrow=classic;html=1;rounded=0;labelBackgroundColor=default;strokeColor=default;fontFamily=Helvetica;fontSize=11;fontColor=default;shape=connector;" edge="1" parent="-SmrNzQtFmz0KVNYP7S3-1">
          <mxGeometry width="50" height="50" relative="1" as="geometry">
            <mxPoint x="173" y="60" as="sourcePoint" />
            <mxPoint x="133" y="59.5" as="targetPoint" />
          </mxGeometry>
        </mxCell>
        <mxCell id="-SmrNzQtFmz0KVNYP7S3-24" value="" style="endArrow=none;html=1;rounded=0;labelBackgroundColor=default;strokeColor=default;fontFamily=Helvetica;fontSize=11;fontColor=default;shape=connector;" edge="1" parent="-SmrNzQtFmz0KVNYP7S3-1">
          <mxGeometry width="50" height="50" relative="1" as="geometry">
            <mxPoint x="173" y="177.5" as="sourcePoint" />
            <mxPoint x="213" y="178" as="targetPoint" />
          </mxGeometry>
        </mxCell>
        <mxCell id="-SmrNzQtFmz0KVNYP7S3-25" value="" style="endArrow=none;html=1;rounded=0;labelBackgroundColor=default;strokeColor=default;fontFamily=Helvetica;fontSize=11;fontColor=default;shape=connector;entryX=0;entryY=0.5;entryDx=0;entryDy=0;" edge="1" parent="-SmrNzQtFmz0KVNYP7S3-1" target="-SmrNzQtFmz0KVNYP7S3-11">
          <mxGeometry width="50" height="50" relative="1" as="geometry">
            <mxPoint x="333" y="180" as="sourcePoint" />
            <mxPoint x="373" y="180.5" as="targetPoint" />
          </mxGeometry>
        </mxCell>
        <mxCell id="-SmrNzQtFmz0KVNYP7S3-26" value="" style="endArrow=none;html=1;rounded=0;labelBackgroundColor=default;strokeColor=default;fontFamily=Helvetica;fontSize=11;fontColor=default;shape=connector;entryX=0;entryY=0.5;entryDx=0;entryDy=0;" edge="1" parent="-SmrNzQtFmz0KVNYP7S3-1">
          <mxGeometry width="50" height="50" relative="1" as="geometry">
            <mxPoint x="533" y="179.5" as="sourcePoint" />
            <mxPoint x="613" y="179.5" as="targetPoint" />
          </mxGeometry>
        </mxCell>
        <mxCell id="-SmrNzQtFmz0KVNYP7S3-27" value="" style="endArrow=none;html=1;rounded=0;labelBackgroundColor=default;strokeColor=default;fontFamily=Helvetica;fontSize=11;fontColor=default;shape=connector;" edge="1" parent="-SmrNzQtFmz0KVNYP7S3-1">
          <mxGeometry width="50" height="50" relative="1" as="geometry">
            <mxPoint x="733" y="180" as="sourcePoint" />
            <mxPoint x="773" y="180" as="targetPoint" />
          </mxGeometry>
        </mxCell>
        <mxCell id="-SmrNzQtFmz0KVNYP7S3-28" value="" style="endArrow=none;html=1;rounded=0;labelBackgroundColor=default;strokeColor=default;fontFamily=Helvetica;fontSize=11;fontColor=default;shape=connector;" edge="1" parent="-SmrNzQtFmz0KVNYP7S3-1">
          <mxGeometry width="50" height="50" relative="1" as="geometry">
            <mxPoint x="773" y="301" as="sourcePoint" />
            <mxPoint x="773" y="59" as="targetPoint" />
          </mxGeometry>
        </mxCell>
        <mxCell id="-SmrNzQtFmz0KVNYP7S3-32" value="" style="endArrow=classic;html=1;rounded=0;labelBackgroundColor=default;strokeColor=default;fontFamily=Helvetica;fontSize=11;fontColor=default;shape=connector;" edge="1" parent="-SmrNzQtFmz0KVNYP7S3-1">
          <mxGeometry width="50" height="50" relative="1" as="geometry">
            <mxPoint x="773" y="60" as="sourcePoint" />
            <mxPoint x="813" y="59.5" as="targetPoint" />
          </mxGeometry>
        </mxCell>
        <mxCell id="FOLGaVtYC7aCWc0938mm-3" value="&lt;b style=&quot;&quot;&gt;&lt;font style=&quot;font-size: 14px;&quot;&gt;Legends&lt;/font&gt;&lt;font size=&quot;1&quot;&gt;:&lt;/font&gt;&lt;/b&gt;&lt;br&gt;PDDL -&amp;nbsp;Planning Domain Definition Language&lt;br&gt;Retrival Augemented Generation -RAG&lt;br&gt;Reasoning&amp;nbsp; Acting -ReAct&lt;br&gt;Constituitional AI -CAI" style="rounded=0;whiteSpace=wrap;html=1;fontFamily=Helvetica;fontSize=11;fontColor=default;" vertex="1" parent="-SmrNzQtFmz0KVNYP7S3-1">
          <mxGeometry x="13" y="360" width="407" height="80" as="geometry" />
        </mxCell>
        <mxCell id="-SmrNzQtFmz0KVNYP7S3-22" value="" style="endArrow=classic;html=1;rounded=0;labelBackgroundColor=default;strokeColor=default;fontFamily=Helvetica;fontSize=11;fontColor=default;shape=connector;" edge="1" parent="1">
          <mxGeometry width="50" height="50" relative="1" as="geometry">
            <mxPoint x="201" y="217" as="sourcePoint" />
            <mxPoint x="161" y="216.5" as="targetPoint" />
          </mxGeometry>
        </mxCell>
        <mxCell id="-SmrNzQtFmz0KVNYP7S3-23" value="" style="endArrow=classic;html=1;rounded=0;labelBackgroundColor=default;strokeColor=default;fontFamily=Helvetica;fontSize=11;fontColor=default;shape=connector;" edge="1" parent="1">
          <mxGeometry width="50" height="50" relative="1" as="geometry">
            <mxPoint x="201" y="341" as="sourcePoint" />
            <mxPoint x="161" y="340.5" as="targetPoint" />
          </mxGeometry>
        </mxCell>
        <mxCell id="-SmrNzQtFmz0KVNYP7S3-33" value="" style="endArrow=classic;html=1;rounded=0;labelBackgroundColor=default;strokeColor=default;fontFamily=Helvetica;fontSize=11;fontColor=default;shape=connector;" edge="1" parent="1">
          <mxGeometry width="50" height="50" relative="1" as="geometry">
            <mxPoint x="801" y="220" as="sourcePoint" />
            <mxPoint x="841" y="219.5" as="targetPoint" />
          </mxGeometry>
        </mxCell>
        <mxCell id="-SmrNzQtFmz0KVNYP7S3-34" value="" style="endArrow=classic;html=1;rounded=0;labelBackgroundColor=default;strokeColor=default;fontFamily=Helvetica;fontSize=11;fontColor=default;shape=connector;" edge="1" parent="1">
          <mxGeometry width="50" height="50" relative="1" as="geometry">
            <mxPoint x="802" y="339" as="sourcePoint" />
            <mxPoint x="842" y="338.5" as="targetPoint" />
          </mxGeometry>
        </mxCell>
      </root>
    </mxGraphModel>
  </diagram>
  <diagram id="wAU_BJDNdANPKUw7x78M" name="Page-5">
    <mxGraphModel dx="1434" dy="661" grid="0" gridSize="10" guides="1" tooltips="1" connect="1" arrows="1" fold="1" page="1" pageScale="1" pageWidth="827" pageHeight="1169" math="0" shadow="0">
      <root>
        <mxCell id="0" />
        <mxCell id="1" parent="0" />
        <mxCell id="oHS13sWgfi5n2liv5r-X-1" value="Text Generation with LLM" style="whiteSpace=wrap;html=1;aspect=fixed;fontFamily=Helvetica;fontSize=11;fillColor=#ffe6cc;strokeColor=#d79b00;" vertex="1" parent="1">
          <mxGeometry x="200" y="83" width="80" height="80" as="geometry" />
        </mxCell>
        <object label="Documents&lt;br&gt;" Documents="" id="K-YM0LRHS5k5yPuPthI1-1">
          <mxCell style="sketch=0;outlineConnect=0;fontColor=#232F3E;gradientColor=none;fillColor=#232F3D;strokeColor=none;dashed=0;verticalLabelPosition=bottom;verticalAlign=top;align=center;html=1;fontSize=12;fontStyle=0;aspect=fixed;pointerEvents=1;shape=mxgraph.aws4.documents2;fontFamily=Helvetica;" vertex="1" parent="1">
            <mxGeometry x="29" y="84" width="67" height="78" as="geometry" />
          </mxCell>
        </object>
        <mxCell id="K-YM0LRHS5k5yPuPthI1-2" value="" style="endArrow=classic;html=1;rounded=0;labelBackgroundColor=default;strokeColor=default;fontFamily=Helvetica;fontSize=11;fontColor=default;shape=connector;" edge="1" parent="1">
          <mxGeometry width="50" height="50" relative="1" as="geometry">
            <mxPoint x="91" y="122.5" as="sourcePoint" />
            <mxPoint x="201" y="122.5" as="targetPoint" />
          </mxGeometry>
        </mxCell>
        <mxCell id="K-YM0LRHS5k5yPuPthI1-3" value="" style="endArrow=classic;html=1;rounded=0;labelBackgroundColor=default;strokeColor=default;fontFamily=Helvetica;fontSize=11;fontColor=default;shape=connector;" edge="1" parent="1">
          <mxGeometry width="50" height="50" relative="1" as="geometry">
            <mxPoint x="280" y="122.5" as="sourcePoint" />
            <mxPoint x="390" y="122.5" as="targetPoint" />
          </mxGeometry>
        </mxCell>
        <mxCell id="K-YM0LRHS5k5yPuPthI1-4" value="Generated text" style="whiteSpace=wrap;html=1;aspect=fixed;fontFamily=Helvetica;fontSize=11;fillColor=#dae8fc;strokeColor=#6c8ebf;" vertex="1" parent="1">
          <mxGeometry x="400" y="84" width="80" height="80" as="geometry" />
        </mxCell>
        <mxCell id="K-YM0LRHS5k5yPuPthI1-7" style="edgeStyle=orthogonalEdgeStyle;shape=connector;rounded=0;orthogonalLoop=1;jettySize=auto;html=1;labelBackgroundColor=default;strokeColor=default;fontFamily=Helvetica;fontSize=11;fontColor=default;endArrow=classic;" edge="1" parent="1" source="K-YM0LRHS5k5yPuPthI1-5" target="K-YM0LRHS5k5yPuPthI1-8">
          <mxGeometry relative="1" as="geometry">
            <mxPoint x="640" y="243" as="targetPoint" />
          </mxGeometry>
        </mxCell>
        <mxCell id="K-YM0LRHS5k5yPuPthI1-5" value="Legal/Review Department" style="whiteSpace=wrap;html=1;aspect=fixed;fontFamily=Helvetica;fontSize=11;fillColor=#d5e8d4;strokeColor=#82b366;" vertex="1" parent="1">
          <mxGeometry x="600" y="84" width="80" height="80" as="geometry" />
        </mxCell>
        <mxCell id="K-YM0LRHS5k5yPuPthI1-6" value="" style="endArrow=classic;html=1;rounded=0;labelBackgroundColor=default;strokeColor=default;fontFamily=Helvetica;fontSize=11;fontColor=default;shape=connector;" edge="1" parent="1">
          <mxGeometry width="50" height="50" relative="1" as="geometry">
            <mxPoint x="490" y="123.5" as="sourcePoint" />
            <mxPoint x="600" y="123.5" as="targetPoint" />
          </mxGeometry>
        </mxCell>
        <mxCell id="K-YM0LRHS5k5yPuPthI1-9" style="edgeStyle=orthogonalEdgeStyle;shape=connector;rounded=0;orthogonalLoop=1;jettySize=auto;html=1;entryX=0.5;entryY=1;entryDx=0;entryDy=0;labelBackgroundColor=default;strokeColor=default;fontFamily=Helvetica;fontSize=11;fontColor=default;endArrow=classic;" edge="1" parent="1" source="K-YM0LRHS5k5yPuPthI1-8" target="oHS13sWgfi5n2liv5r-X-1">
          <mxGeometry relative="1" as="geometry" />
        </mxCell>
        <mxCell id="K-YM0LRHS5k5yPuPthI1-10" value="No" style="edgeLabel;html=1;align=center;verticalAlign=middle;resizable=0;points=[];fontSize=11;fontFamily=Helvetica;fontColor=default;" vertex="1" connectable="0" parent="K-YM0LRHS5k5yPuPthI1-9">
          <mxGeometry x="-0.1818" y="1" relative="1" as="geometry">
            <mxPoint as="offset" />
          </mxGeometry>
        </mxCell>
        <mxCell id="K-YM0LRHS5k5yPuPthI1-11" style="edgeStyle=orthogonalEdgeStyle;shape=connector;rounded=0;orthogonalLoop=1;jettySize=auto;html=1;exitX=1;exitY=0.5;exitDx=0;exitDy=0;labelBackgroundColor=default;strokeColor=default;fontFamily=Helvetica;fontSize=11;fontColor=default;endArrow=classic;entryX=0.5;entryY=0;entryDx=0;entryDy=0;" edge="1" parent="1" source="K-YM0LRHS5k5yPuPthI1-8" target="K-YM0LRHS5k5yPuPthI1-12">
          <mxGeometry relative="1" as="geometry">
            <mxPoint x="750" y="303" as="targetPoint" />
          </mxGeometry>
        </mxCell>
        <mxCell id="K-YM0LRHS5k5yPuPthI1-13" value="Yes" style="edgeLabel;html=1;align=center;verticalAlign=middle;resizable=0;points=[];fontSize=11;fontFamily=Helvetica;fontColor=default;" vertex="1" connectable="0" parent="K-YM0LRHS5k5yPuPthI1-11">
          <mxGeometry x="-0.4667" y="-1" relative="1" as="geometry">
            <mxPoint as="offset" />
          </mxGeometry>
        </mxCell>
        <mxCell id="K-YM0LRHS5k5yPuPthI1-8" value="Valid Text &amp;amp; Re generate count &amp;lt;Configured count" style="rhombus;whiteSpace=wrap;html=1;fontFamily=Helvetica;fontSize=11;fontColor=default;" vertex="1" parent="1">
          <mxGeometry x="600" y="203" width="140" height="150" as="geometry" />
        </mxCell>
        <mxCell id="K-YM0LRHS5k5yPuPthI1-12" value="Text Generation with LLM Or Failure" style="whiteSpace=wrap;html=1;aspect=fixed;fontFamily=Helvetica;fontSize=11;fillColor=#ffe6cc;strokeColor=#d79b00;" vertex="1" parent="1">
          <mxGeometry x="840" y="413" width="80" height="80" as="geometry" />
        </mxCell>
        <mxCell id="iMpKAgy1hCgHzljjzLKY-1" value="Text Generaton with Human Feedbaack" style="swimlane;startSize=20;horizontal=1;containerType=tree;" vertex="1" parent="1">
          <mxGeometry x="11" y="31" width="1056" height="487" as="geometry" />
        </mxCell>
      </root>
    </mxGraphModel>
  </diagram>
  <diagram id="MvaeTAfR2B2SEh3v0Iwy" name="Page-6">
    <mxGraphModel dx="1434" dy="661" grid="1" gridSize="10" guides="1" tooltips="1" connect="1" arrows="1" fold="1" page="1" pageScale="1" pageWidth="827" pageHeight="1169" math="0" shadow="0">
      <root>
        <mxCell id="0" />
        <mxCell id="1" parent="0" />
        <mxCell id="ty5eufN5iTcQTJdKqNiX-29" style="edgeStyle=orthogonalEdgeStyle;shape=connector;rounded=0;orthogonalLoop=1;jettySize=auto;html=1;labelBackgroundColor=default;strokeColor=default;fontFamily=Helvetica;fontSize=11;fontColor=default;endArrow=classic;" edge="1" parent="1" source="ty5eufN5iTcQTJdKqNiX-26">
          <mxGeometry relative="1" as="geometry">
            <mxPoint x="830" y="365" as="targetPoint" />
          </mxGeometry>
        </mxCell>
        <mxCell id="ty5eufN5iTcQTJdKqNiX-26" value="" style="rounded=0;whiteSpace=wrap;html=1;fontFamily=Helvetica;fontSize=11;fontColor=default;" vertex="1" parent="1">
          <mxGeometry x="30" y="50" width="710" height="630" as="geometry" />
        </mxCell>
        <mxCell id="ty5eufN5iTcQTJdKqNiX-8" value="Prompt Reeipe" style="rounded=0;whiteSpace=wrap;html=1;fontFamily=Helvetica;fontSize=11;fontColor=default;" vertex="1" parent="1">
          <mxGeometry x="120" y="90" width="510" height="140" as="geometry" />
        </mxCell>
        <mxCell id="ty5eufN5iTcQTJdKqNiX-1" value="LLM&amp;nbsp;" style="whiteSpace=wrap;html=1;aspect=fixed;fontFamily=Helvetica;fontSize=11;fontColor=default;" vertex="1" parent="1">
          <mxGeometry x="372" y="302" width="80" height="80" as="geometry" />
        </mxCell>
        <mxCell id="ty5eufN5iTcQTJdKqNiX-2" value="Persona" style="rounded=1;whiteSpace=wrap;html=1;fontFamily=Helvetica;fontSize=11;fontColor=default;" vertex="1" parent="1">
          <mxGeometry x="440" y="148" width="120" height="60" as="geometry" />
        </mxCell>
        <mxCell id="ty5eufN5iTcQTJdKqNiX-3" value="Instrctions" style="rounded=1;whiteSpace=wrap;html=1;fontFamily=Helvetica;fontSize=11;fontColor=default;" vertex="1" parent="1">
          <mxGeometry x="200" y="148" width="120" height="60" as="geometry" />
        </mxCell>
        <mxCell id="ty5eufN5iTcQTJdKqNiX-4" value="Knowedge" style="rounded=1;whiteSpace=wrap;html=1;fontFamily=Helvetica;fontSize=11;fontColor=default;" vertex="1" parent="1">
          <mxGeometry x="200" y="480" width="120" height="60" as="geometry" />
        </mxCell>
        <mxCell id="ty5eufN5iTcQTJdKqNiX-5" value="Memory" style="rounded=1;whiteSpace=wrap;html=1;fontFamily=Helvetica;fontSize=11;fontColor=default;" vertex="1" parent="1">
          <mxGeometry x="440" y="480" width="120" height="60" as="geometry" />
        </mxCell>
        <mxCell id="ty5eufN5iTcQTJdKqNiX-9" style="edgeStyle=orthogonalEdgeStyle;shape=connector;rounded=0;orthogonalLoop=1;jettySize=auto;html=1;exitX=1;exitY=0.5;exitDx=0;exitDy=0;entryX=0;entryY=0.5;entryDx=0;entryDy=0;labelBackgroundColor=default;strokeColor=default;fontFamily=Helvetica;fontSize=11;fontColor=default;endArrow=classic;" edge="1" parent="1" source="ty5eufN5iTcQTJdKqNiX-6" target="ty5eufN5iTcQTJdKqNiX-1">
          <mxGeometry relative="1" as="geometry" />
        </mxCell>
        <mxCell id="ty5eufN5iTcQTJdKqNiX-6" value="Tools" style="rounded=1;whiteSpace=wrap;html=1;fontFamily=Helvetica;fontSize=11;fontColor=default;" vertex="1" parent="1">
          <mxGeometry x="80" y="312" width="120" height="60" as="geometry" />
        </mxCell>
        <mxCell id="ty5eufN5iTcQTJdKqNiX-7" value="Interface" style="rounded=1;whiteSpace=wrap;html=1;fontFamily=Helvetica;fontSize=11;fontColor=default;" vertex="1" parent="1">
          <mxGeometry x="560" y="320" width="120" height="60" as="geometry" />
        </mxCell>
        <mxCell id="ty5eufN5iTcQTJdKqNiX-11" value="" style="endArrow=classic;html=1;rounded=0;labelBackgroundColor=default;strokeColor=default;fontFamily=Helvetica;fontSize=11;fontColor=default;shape=connector;exitX=0.5;exitY=0;exitDx=0;exitDy=0;" edge="1" parent="1" source="ty5eufN5iTcQTJdKqNiX-5">
          <mxGeometry width="50" height="50" relative="1" as="geometry">
            <mxPoint x="390" y="370" as="sourcePoint" />
            <mxPoint x="420" y="390" as="targetPoint" />
            <Array as="points" />
          </mxGeometry>
        </mxCell>
        <mxCell id="ty5eufN5iTcQTJdKqNiX-12" value="" style="endArrow=classic;html=1;rounded=0;labelBackgroundColor=default;strokeColor=default;fontFamily=Helvetica;fontSize=11;fontColor=default;shape=connector;exitX=0.633;exitY=-0.017;exitDx=0;exitDy=0;exitPerimeter=0;entryX=0.363;entryY=1.05;entryDx=0;entryDy=0;entryPerimeter=0;" edge="1" parent="1" source="ty5eufN5iTcQTJdKqNiX-4" target="ty5eufN5iTcQTJdKqNiX-1">
          <mxGeometry width="50" height="50" relative="1" as="geometry">
            <mxPoint x="360" y="490" as="sourcePoint" />
            <mxPoint x="430" y="380" as="targetPoint" />
            <Array as="points" />
          </mxGeometry>
        </mxCell>
        <mxCell id="ty5eufN5iTcQTJdKqNiX-13" value="" style="endArrow=classic;html=1;rounded=0;labelBackgroundColor=default;strokeColor=default;fontFamily=Helvetica;fontSize=11;fontColor=default;shape=connector;exitX=0.555;exitY=1.014;exitDx=0;exitDy=0;exitPerimeter=0;entryX=0.388;entryY=0;entryDx=0;entryDy=0;entryPerimeter=0;" edge="1" parent="1">
          <mxGeometry width="50" height="50" relative="1" as="geometry">
            <mxPoint x="402.04999999999995" y="231.96000000000004" as="sourcePoint" />
            <mxPoint x="402.03999999999996" y="302" as="targetPoint" />
            <Array as="points" />
          </mxGeometry>
        </mxCell>
        <mxCell id="ty5eufN5iTcQTJdKqNiX-15" style="edgeStyle=orthogonalEdgeStyle;shape=connector;rounded=0;orthogonalLoop=1;jettySize=auto;html=1;labelBackgroundColor=default;strokeColor=default;fontFamily=Helvetica;fontSize=11;fontColor=default;endArrow=classic;entryX=1;entryY=0.5;entryDx=0;entryDy=0;exitX=0.008;exitY=0.367;exitDx=0;exitDy=0;exitPerimeter=0;" edge="1" parent="1" source="ty5eufN5iTcQTJdKqNiX-7" target="ty5eufN5iTcQTJdKqNiX-1">
          <mxGeometry relative="1" as="geometry">
            <mxPoint x="560" y="340" as="sourcePoint" />
            <mxPoint x="460" y="340" as="targetPoint" />
          </mxGeometry>
        </mxCell>
        <mxCell id="ty5eufN5iTcQTJdKqNiX-17" value="" style="shape=cylinder3;whiteSpace=wrap;html=1;boundedLbl=1;backgroundOutline=1;size=15;fontFamily=Helvetica;fontSize=11;fontColor=default;" vertex="1" parent="1">
          <mxGeometry x="230" y="580" width="60" height="80" as="geometry" />
        </mxCell>
        <mxCell id="ty5eufN5iTcQTJdKqNiX-18" value="" style="endArrow=classic;html=1;rounded=0;labelBackgroundColor=default;strokeColor=default;fontFamily=Helvetica;fontSize=11;fontColor=default;shape=connector;" edge="1" parent="1" source="ty5eufN5iTcQTJdKqNiX-4" target="ty5eufN5iTcQTJdKqNiX-17">
          <mxGeometry width="50" height="50" relative="1" as="geometry">
            <mxPoint x="250" y="590" as="sourcePoint" />
            <mxPoint x="300" y="540" as="targetPoint" />
          </mxGeometry>
        </mxCell>
        <mxCell id="ty5eufN5iTcQTJdKqNiX-20" value="" style="sketch=0;outlineConnect=0;fontColor=#232F3E;gradientColor=none;fillColor=#3F8624;strokeColor=none;dashed=0;verticalLabelPosition=bottom;verticalAlign=top;align=center;html=1;fontSize=12;fontStyle=0;aspect=fixed;pointerEvents=1;shape=mxgraph.aws4.backup_aws_backup_support_for_amazon_s3;fontFamily=Helvetica;" vertex="1" parent="1">
          <mxGeometry x="320" y="585" width="78" height="78" as="geometry" />
        </mxCell>
        <mxCell id="ty5eufN5iTcQTJdKqNiX-21" value="" style="endArrow=classic;html=1;rounded=0;labelBackgroundColor=default;strokeColor=default;fontFamily=Helvetica;fontSize=11;fontColor=default;shape=connector;exitX=0.383;exitY=0.983;exitDx=0;exitDy=0;exitPerimeter=0;" edge="1" parent="1" target="ty5eufN5iTcQTJdKqNiX-20">
          <mxGeometry width="50" height="50" relative="1" as="geometry">
            <mxPoint x="260" y="540" as="sourcePoint" />
            <mxPoint x="370" y="600" as="targetPoint" />
            <Array as="points" />
          </mxGeometry>
        </mxCell>
        <mxCell id="ty5eufN5iTcQTJdKqNiX-22" value="" style="sketch=0;html=1;dashed=0;whitespace=wrap;fillColor=#2875E2;strokeColor=#ffffff;points=[[0.005,0.63,0],[0.1,0.2,0],[0.9,0.2,0],[0.5,0,0],[0.995,0.63,0],[0.72,0.99,0],[0.5,1,0],[0.28,0.99,0]];verticalLabelPosition=bottom;align=center;verticalAlign=top;shape=mxgraph.kubernetes.icon;prIcon=api;fontFamily=Helvetica;fontSize=11;fontColor=default;" vertex="1" parent="1">
          <mxGeometry x="100" y="590" width="110" height="70" as="geometry" />
        </mxCell>
        <mxCell id="ty5eufN5iTcQTJdKqNiX-23" value="" style="endArrow=classic;html=1;rounded=0;labelBackgroundColor=default;strokeColor=default;fontFamily=Helvetica;fontSize=11;fontColor=default;shape=connector;exitX=0.5;exitY=1;exitDx=0;exitDy=0;entryX=0.5;entryY=0;entryDx=0;entryDy=0;entryPerimeter=0;" edge="1" parent="1" source="ty5eufN5iTcQTJdKqNiX-4" target="ty5eufN5iTcQTJdKqNiX-22">
          <mxGeometry width="50" height="50" relative="1" as="geometry">
            <mxPoint x="150" y="559" as="sourcePoint" />
            <mxPoint x="210" y="610" as="targetPoint" />
            <Array as="points" />
          </mxGeometry>
        </mxCell>
        <mxCell id="ty5eufN5iTcQTJdKqNiX-24" value="Behaviour" style="rounded=1;whiteSpace=wrap;html=1;fontFamily=Helvetica;fontSize=11;fontColor=default;" vertex="1" parent="1">
          <mxGeometry x="320" y="148" width="120" height="60" as="geometry" />
        </mxCell>
        <mxCell id="ty5eufN5iTcQTJdKqNiX-25" value="&lt;b&gt;Prompt Receipe&lt;/b&gt;" style="text;html=1;strokeColor=none;fillColor=none;align=center;verticalAlign=middle;whiteSpace=wrap;rounded=0;fontSize=11;fontFamily=Helvetica;fontColor=default;" vertex="1" parent="1">
          <mxGeometry x="160" y="100" width="230" height="30" as="geometry" />
        </mxCell>
        <mxCell id="ty5eufN5iTcQTJdKqNiX-27" value="Text" style="text;html=1;strokeColor=none;fillColor=none;align=center;verticalAlign=middle;whiteSpace=wrap;rounded=0;fontSize=11;fontFamily=Helvetica;fontColor=default;" vertex="1" parent="1">
          <mxGeometry x="380" y="260" width="60" height="30" as="geometry" />
        </mxCell>
        <mxCell id="ty5eufN5iTcQTJdKqNiX-28" value="LLM Agent" style="text;html=1;strokeColor=none;fillColor=none;align=center;verticalAlign=middle;whiteSpace=wrap;rounded=0;fontSize=11;fontFamily=Helvetica;fontColor=default;" vertex="1" parent="1">
          <mxGeometry x="40" y="60" width="60" height="30" as="geometry" />
        </mxCell>
        <mxCell id="ty5eufN5iTcQTJdKqNiX-30" value="" style="rounded=0;whiteSpace=wrap;html=1;fontFamily=Helvetica;fontSize=11;fontColor=default;strokeColor=default;" vertex="1" parent="1">
          <mxGeometry x="840" y="49" width="380" height="630" as="geometry" />
        </mxCell>
        <mxCell id="ty5eufN5iTcQTJdKqNiX-34" value="LLM&amp;nbsp;" style="whiteSpace=wrap;html=1;aspect=fixed;fontFamily=Helvetica;fontSize=11;fontColor=default;" vertex="1" parent="1">
          <mxGeometry x="910" y="325" width="80" height="80" as="geometry" />
        </mxCell>
        <mxCell id="ty5eufN5iTcQTJdKqNiX-35" value="LLM Supervisor Agent" style="text;html=1;strokeColor=none;fillColor=none;align=center;verticalAlign=middle;whiteSpace=wrap;rounded=0;fontSize=11;fontFamily=Helvetica;fontColor=default;" vertex="1" parent="1">
          <mxGeometry x="850" y="60" width="170" height="30" as="geometry" />
        </mxCell>
        <mxCell id="ty5eufN5iTcQTJdKqNiX-37" style="edgeStyle=orthogonalEdgeStyle;shape=connector;rounded=0;orthogonalLoop=1;jettySize=auto;html=1;labelBackgroundColor=default;strokeColor=default;fontFamily=Helvetica;fontSize=11;fontColor=default;endArrow=classic;entryX=1.006;entryY=0.525;entryDx=0;entryDy=0;entryPerimeter=0;" edge="1" parent="1" target="ty5eufN5iTcQTJdKqNiX-26">
          <mxGeometry relative="1" as="geometry">
            <mxPoint x="840" y="381" as="sourcePoint" />
            <mxPoint x="740" y="375" as="targetPoint" />
          </mxGeometry>
        </mxCell>
        <mxCell id="ty5eufN5iTcQTJdKqNiX-38" value="Feedback Loop" style="edgeLabel;html=1;align=center;verticalAlign=middle;resizable=0;points=[];" vertex="1" connectable="0" parent="ty5eufN5iTcQTJdKqNiX-37">
          <mxGeometry x="-0.0256" y="-1" relative="1" as="geometry">
            <mxPoint as="offset" />
          </mxGeometry>
        </mxCell>
      </root>
    </mxGraphModel>
  </diagram>
</mxfile>
